# xmcd CD database file
#
# Track frame offsets:
#	150
#	14833
#	24562
#	38887
#	64394
#	86423
#	98950
#	117960
#	145817
#	163946
#	178651
#	199015
#	217098
#	228595
#	235749
#	251357
#	267561
#	295186
#	318246
#	329775
#
# Disc length: 4562 seconds
#
# Revision: 0
# Processed by: cddbd v1.4PL0 Copyright (c) Steve Scherf et al.
# Submitted via: CDex 1.50Beta7
#
DISCID=3311d014
DTITLE=Hot Club Music - Django Festival-Gypsy Swing Today 2
DYEAR=2002
DGENRE=Jazz
TTITLE0=Swing 42-Andy Mackenzie  and Jhon Jorgenson
TTITLE1=Amarcord-Fabop Lossani and Quintette Ritmico Di Milano
TTITLE2=For Matelo-Raul Reynosa
TTITLE3=Nuages-Angelo Debarre
TTITLE4=Swing Gitan-Radolphe Raffalli
TTITLE5=I Can't Give You-Hady Mouallem and Reineir Voet
TTITLE6=Yesterdays-Caravat Quartet
TTITLE7=All Of Me-Jimmy and Bireli and Angelo
TTITLE8=Beatiful Love-Jean Philippe Watremez
TTITLE9=Note Swing-Angelo Debarre and Moreno
TTITLE10=Isn't She Lovely-Jimmy and Babik and Romane
TTITLE11=Honysuckle Rose-Vitali Imereli
TTITLE12=Valse A Ferry-Cordes Sauvages
TTITLE13=Jimmy's Rumba-Jimmy Rosenberg
TTITLE14=Dreams Love-Marcelo Matte Swing Trio
TTITLE15=For Coloma-Biel Ballester Trio
TTITLE16=Lost And Found-Hot Club de Norvege
TTITLE17=Just One Of Those Things-Latcho Drom and Florin and Ola
TTITLE18=Metro Swing-Moreno and Angelo Debarre
TTITLE19=Aven Nasastusa-Opus 4
EXTD=YEAR: 2002
EXTT0=
EXTT1=
EXTT2=
EXTT3=
EXTT4=
EXTT5=
EXTT6=
EXTT7=
EXTT8=
EXTT9=
EXTT10=
EXTT11=
EXTT12=
EXTT13=
EXTT14=
EXTT15=
EXTT16=
EXTT17=
EXTT18=
EXTT19=
PLAYORDER=
